<mxfile host="65bd71144e">
    <diagram id="4_xAO81MvXytq20LTa4a" name="Page-1">
        <mxGraphModel dx="1046" dy="515" grid="1" gridSize="10" guides="1" tooltips="1" connect="1" arrows="1" fold="1" page="1" pageScale="1" pageWidth="827" pageHeight="1169" math="0" shadow="0">
            <root>
                <mxCell id="0"/>
                <mxCell id="1" parent="0"/>
                <object label="&lt;font style=&quot;font-size: 89px&quot; color=&quot;#0000cc&quot;&gt;Title&lt;/font&gt;" keyframe-id="2" motion-id="dn-title1" id="23">
                    <mxCell style="text;strokeColor=none;html=1;fontSize=24;fontStyle=1;verticalAlign=middle;align=center;fillColor=#2a2a2a;opacity=0;" vertex="1" parent="1">
                        <mxGeometry x="146" y="10" width="230" height="100" as="geometry"/>
                    </mxCell>
                </object>
                <object label="&lt;font style=&quot;font-size: 56px&quot; color=&quot;#0000cc&quot;&gt;Title&lt;/font&gt;" keyframe-id="1" motion-id="dn-title1" id="24">
                    <mxCell style="text;strokeColor=none;html=1;fontSize=24;fontStyle=1;verticalAlign=middle;align=center;fillColor=#2a2a2a;opacity=0;" vertex="1" parent="1">
                        <mxGeometry x="150" y="20" width="184" height="70" as="geometry"/>
                    </mxCell>
                </object>
                <object label="" motion-id="dn-message" keyframe-id="1" id="10">
                    <mxCell style="strokeWidth=2;outlineConnect=0;dashed=0;align=center;fontSize=8;fillColor=#c0f5a9;verticalLabelPosition=bottom;verticalAlign=top;shape=mxgraph.eip.envelope_wrapper;" parent="1" vertex="1">
                        <mxGeometry x="135" y="222" width="15" height="14" as="geometry"/>
                    </mxCell>
                </object>
                <object label="" motion-id="dn-message" keyframe-id="9" id="17">
                    <mxCell style="strokeWidth=2;outlineConnect=0;dashed=0;align=center;fontSize=8;fillColor=#c0f5a9;verticalLabelPosition=bottom;verticalAlign=top;shape=mxgraph.eip.envelope_wrapper;" parent="1" vertex="1">
                        <mxGeometry x="135" y="226" width="12.5" height="10" as="geometry"/>
                    </mxCell>
                </object>
                <object label="" motion-id="dn-message" keyframe-id="5" id="13">
                    <mxCell style="strokeWidth=2;outlineConnect=0;dashed=0;align=center;fontSize=8;fillColor=#c0f5a9;verticalLabelPosition=bottom;verticalAlign=top;shape=mxgraph.eip.envelope_wrapper;" parent="1" vertex="1">
                        <mxGeometry x="564" y="370" width="30" height="20" as="geometry"/>
                    </mxCell>
                </object>
                <mxCell id="5" value="" style="outlineConnect=0;fontColor=#232F3E;gradientColor=none;fillColor=#527FFF;strokeColor=none;dashed=0;verticalLabelPosition=bottom;verticalAlign=top;align=center;html=1;fontSize=12;fontStyle=0;aspect=fixed;pointerEvents=1;shape=mxgraph.aws4.rds_mysql_instance_alt;" parent="1" vertex="1">
                    <mxGeometry x="540" y="360" width="78" height="78" as="geometry"/>
                </mxCell>
                <mxCell id="21" style="edgeStyle=none;html=1;exitX=0.5;exitY=0;exitDx=0;exitDy=0;exitPerimeter=0;entryX=0;entryY=0.5;entryDx=0;entryDy=0;entryPerimeter=0;" parent="1" source="10" target="17" edge="1">
                    <mxGeometry relative="1" as="geometry"/>
                </mxCell>
                <mxCell id="2" value="" style="aspect=fixed;perimeter=ellipsePerimeter;html=1;align=center;shadow=0;dashed=0;spacingTop=3;image;image=img/lib/active_directory/generic_server.svg;" parent="1" vertex="1">
                    <mxGeometry x="556.6" y="168" width="44.8" height="80" as="geometry"/>
                </mxCell>
                <mxCell id="3" value="" style="shape=mxgraph.cisco.computers_and_peripherals.web_browser;html=1;pointerEvents=1;dashed=0;fillColor=#036897;strokeColor=#ffffff;strokeWidth=2;verticalLabelPosition=bottom;verticalAlign=top;align=center;outlineConnect=0;" parent="1" vertex="1">
                    <mxGeometry x="330" y="176" width="62" height="64" as="geometry"/>
                </mxCell>
                <object label="" motion-id="dn-message" keyframe-id="2" id="8">
                    <mxCell style="strokeWidth=2;outlineConnect=0;dashed=0;align=center;fontSize=8;fillColor=#c0f5a9;verticalLabelPosition=bottom;verticalAlign=top;shape=mxgraph.eip.envelope_wrapper;" parent="1" vertex="1">
                        <mxGeometry x="135" y="156" width="30" height="20" as="geometry"/>
                    </mxCell>
                </object>
                <object label="" motion-id="dn-message" keyframe-id="3" id="11">
                    <mxCell style="strokeWidth=2;outlineConnect=0;dashed=0;align=center;fontSize=8;fillColor=#c0f5a9;verticalLabelPosition=bottom;verticalAlign=top;shape=mxgraph.eip.envelope_wrapper;" parent="1" vertex="1">
                        <mxGeometry x="346" y="148" width="30" height="20" as="geometry"/>
                    </mxCell>
                </object>
                <object label="" motion-id="dn-message" keyframe-id="4" id="12">
                    <mxCell style="strokeWidth=2;outlineConnect=0;dashed=0;align=center;fontSize=8;fillColor=#c0f5a9;verticalLabelPosition=bottom;verticalAlign=top;shape=mxgraph.eip.envelope_wrapper;" parent="1" vertex="1">
                        <mxGeometry x="564" y="140" width="30" height="20" as="geometry"/>
                    </mxCell>
                </object>
                <object label="" motion-id="dn-message" keyframe-id="6" id="14">
                    <mxCell style="strokeWidth=2;outlineConnect=0;dashed=0;align=center;fontSize=8;fillColor=#c0f5a9;verticalLabelPosition=bottom;verticalAlign=top;shape=mxgraph.eip.envelope_wrapper;" parent="1" vertex="1">
                        <mxGeometry x="564" y="140" width="30" height="20" as="geometry"/>
                    </mxCell>
                </object>
                <object label="" motion-id="dn-message" keyframe-id="7" id="15">
                    <mxCell style="strokeWidth=2;outlineConnect=0;dashed=0;align=center;fontSize=8;fillColor=#c0f5a9;verticalLabelPosition=bottom;verticalAlign=top;shape=mxgraph.eip.envelope_wrapper;" parent="1" vertex="1">
                        <mxGeometry x="346" y="148" width="30" height="20" as="geometry"/>
                    </mxCell>
                </object>
                <object label="" motion-id="dn-message" keyframe-id="8" id="16">
                    <mxCell style="strokeWidth=2;outlineConnect=0;dashed=0;align=center;fontSize=8;fillColor=#c0f5a9;verticalLabelPosition=bottom;verticalAlign=top;shape=mxgraph.eip.envelope_wrapper;" parent="1" vertex="1">
                        <mxGeometry x="135" y="156" width="30" height="20" as="geometry"/>
                    </mxCell>
                </object>
                <mxCell id="19" style="edgeStyle=none;html=1;exitX=0.5;exitY=0;exitDx=0;exitDy=0;exitPerimeter=0;entryX=0;entryY=0.25;entryDx=0;entryDy=0;entryPerimeter=0;" parent="1" source="10" target="10" edge="1">
                    <mxGeometry relative="1" as="geometry"/>
                </mxCell>
                <mxCell id="4" value="" style="verticalLabelPosition=bottom;html=1;verticalAlign=top;align=center;strokeColor=none;fillColor=#00BEF2;shape=mxgraph.azure.user;" parent="1" vertex="1">
                    <mxGeometry x="113.13" y="182" width="56.25" height="54" as="geometry"/>
                </mxCell>
            </root>
        </mxGraphModel>
    </diagram>
</mxfile>